<svg xmlns="http://www.w3.org/2000/svg" style="fill:#f6b805" width="35.803" height="35.804"><path d="M12.228 19.167c-.538.076-.667.875-1 .833s-1.042.167-1.458 1.292c-.417 1.125-.167 1.958.958 2.041 1.125.084 2.375-.791 2.792-1.75.416-.958.458-2.666-1.292-2.416zm.208 2.5c-.5.541-.792.875-1.375.708s-.417-.958-.083-1.333.836-.69 1.167-.75c.458-.084.791.833.291 1.375zm2.708 1.791c-.628.347-1.75 2.917-1.042 3.917s2.167.875 3.417 0 2.083-3.375 1.542-4.208c-.542-.834-2.25-.625-3.917.291zm3.042 1.792c-.125.75-.875 1.208-1.833 1.833s-1.333-.416-1.375-1.041.542-1.667 1.167-1.75c.625-.084.629-.118.958-.292.791-.417 1.208.5 1.083 1.25zm-2.75-14.417c1.125 0 2.875-1.291 3.625-2.041S19.353 6.167 16.728 7c-.782.248-2.125 1.292-2.583 2.167-.459.875.166 1.666 1.291 1.666zm.417-2c.292-.375.831-.015 1.083-.166 1.042-.625.833.166.167.583s-.583.667-1.333.583c-.751-.083-.209-.625.083-1zm5.041 3.334c-.589.143-1.708.875-1.917 2.5s.208 2.291 1.083 2.833 2.292.292 3.333-.625c1.042-.917 1.792-2.333 1.375-3.542-.415-1.208-2.499-1.5-3.874-1.166zm2.375 3.208c-.625.833-1.458 1.25-2.292 1.208-.833-.041-1.083-.666-.875-1.958s.667-1.5 1.417-1.583c0 0 1 .083 1.542.291.542.209.833 1.209.208 2.042zm3.542 2.458c-.588.213-1.583 1.5-1.083 2.709.5 1.208 1.125 1.583 2.542 1.208s2.208-1.208 2.25-2.167c.041-.958-.709-2.833-3.709-1.75zm1.625 2.5c-.625.25-.792.25-1.375-.291-.583-.542.513-1.459 1-1.459.292 0 .792.042 1.167.292s-.167 1.208-.792 1.458zm5.189-4.771c-1.125-3.75-1.375-4.812-1.75-5.125s-.938-.062-1.75.625-1.062-.125-1.562-1.188.938-1.312 2.25-1.812.188-2.812-.125-3.938c-.312-1.126-.125-1.562-2.125-2.312S20.186 0 18.749 0s-2.75 1.188-4.438 3.188S9.624 8.312 8.749 9.25s-.062 1.5.25 2.125.5 1.5-.562 2.812-2.438.062-3.25-.375S3.061 15 1.999 16.562c0 0-.75 1.125-1.375 2s1.688 6.062 2.25 6.688.75.5 2.188-.188c1.438-.688 1.438-1 2.5.375s-.75 2.375-1.75 3S6.436 33.25 7.499 35s3.25.312 6.062-1.188 5.812-3.188 7.062-3.938.438-1.562.938-2.625 2-.688 2.5-.125 1.625-.125 5.125-2.25 4.812-2.812 5.75-3.375c.939-.563-.186-2.187-1.311-5.937zm-1.064 5.5c-1.188.688-3.5 2-4.875 2.75S25.5 25.125 24.75 25s-2.062-.562-3.5.375c-1.438.938-1.25 2.938-2.188 3.438-.938.5-5.562 2.688-7.5 3.562s-2.75 1.188-3.125.312c-.375-.877-1.188-2.75-.625-3.312s2.375-2.125 1.75-4.125-2.75-2.5-4.188-2c-.845.294-1.125.438-1.562-.375s-1.938-2.938-1.125-3.938 2.062-3.5 2.75-3.062 2.438.625 3.625-.062 2.312-2.25 2.062-3.562-.562-2.188-.125-2.625 3.5-3.438 4.812-4.875 1.438-2.938 3.625-2.688c2.188.25 7.25 1.188 8 1.562s1.188.5 1.188 1.188.875 1.375.375 1.75-1.812.875-2.062 2.188-.188 2.812.812 3.5 2 1.062 2.375.938.75-.312.938.188c.188.5 1.062 3.75 1.562 5.125s1.126 1.873-.063 2.56zM21.186 9.708c-2.583 2-6.792 4.709-8.583 6-1.792 1.292-5.042 2.459-6.708 3-1.667.542-1.792 1.167-1.583 1.5.208.334.854-.341 1.917-.541 2.208-.417 6.167-2.875 9.583-5 3.417-2.125 5.417-3.917 7.583-5.584 2.167-1.666 2.208-1.625 1.875-2.041-.334-.417-1.501.666-4.084 2.666z"/></svg>