<?xml version="1.0" encoding="iso-8859-1"?>
<!-- Generator: Adobe Illustrator 18.1.1, SVG Export Plug-In . SVG Version: 6.00 Build 0)  -->
<svg version="1.1" id="Capa_1" xmlns="http://www.w3.org/2000/svg" xmlns:xlink="http://www.w3.org/1999/xlink" x="0px" y="0px"
	 viewBox="0 0 73.617 73.617" style="enable-background:new 0 0 73.617 73.617;fill:#f6b805" xml:space="preserve">
<g>
	<path d="M39.353,62.969V48.162c5.496-1.164,9.407-6.106,9.404-12.119L45.774,4.398c0-0.393-0.023-0.785-0.058-1.168l-0.229,0.021
		C44.825,1.116,40.584,0,36.381,0c-4.203,0-8.443,1.115-9.109,3.248l-0.227-0.022c-0.037,0.385-0.059,0.777-0.056,1.102
		l-2.483,31.799c0,5.635,3.843,10.533,9.239,11.918v14.975c-4.712,0.508-9.213,2.262-9.213,5.217c0,3.494,6.33,5.381,12.286,5.381
		c5.957,0,12.288-1.887,12.288-5.381C49.109,65.58,45.139,63.465,39.353,62.969z M36.381,1.801c4.886,0,7.404,1.428,7.404,2.037
		c0,0.611-2.519,2.039-7.404,2.039c-4.888,0-7.408-1.428-7.408-2.039C28.973,3.228,31.494,1.801,36.381,1.801z M36.821,71.816
		c-6.497,0-10.485-2.084-10.485-3.58c0-1.375,3.204-3.103,8.381-3.498l0.832-0.062V46.582l-0.729-0.141
		c-4.932-0.951-8.51-5.289-8.513-10.244l2.356-30.176c1.731,1.091,4.733,1.656,7.719,1.656c2.999,0,6.013-0.57,7.739-1.671
		l2.84,30.12c0,5.303-3.632,9.674-8.636,10.391l-0.772,0.111v18.029l0.85,0.049c5.328,0.299,8.906,2.066,8.906,3.529
		C47.308,69.732,43.319,71.816,36.821,71.816z"/>
	<path d="M37.552,42.455l0.584,1.703c5-1.717,5.934-6.561,5.729-8.879l-1.943-22.615l-1.793,0.154l1.943,22.613
		C42.089,35.65,42.453,40.771,37.552,42.455z"/>
</g>
<g>
</g>
<g>
</g>
<g>
</g>
<g>
</g>
<g>
</g>
<g>
</g>
<g>
</g>
<g>
</g>
<g>
</g>
<g>
</g>
<g>
</g>
<g>
</g>
<g>
</g>
<g>
</g>
<g>
</g>
</svg>
